/* XPM */
static char * reader_xpm[] = {
"360 30 62 1",
" 	c None",
".	c #626266",
"+	c #191918",
"@	c #040204",
"#	c #292929",
"$	c #0B0A0A",
"%	c #121212",
"&	c #80807F",
"*	c #FEFEF6",
"=	c #96968E",
"-	c #C2BAA6",
";	c #363636",
">	c #E2DACD",
",	c #423E3E",
"'	c #6E5D41",
")	c #463015",
"!	c #423A3E",
"~	c #4E4E4E",
"{	c #EEEAE2",
"]	c #9A9A9A",
"^	c #9A896E",
"/	c #EFD19F",
"(	c #FCD98E",
"_	c #FE8B06",
":	c #D65A0D",
"<	c #EACA7A",
"[	c #FEEEBE",
"}	c #FA983A",
"|	c #DAA25E",
"1	c #FEE9AE",
"2	c #D6CABA",
"3	c #5A420A",
"4	c #FEB134",
"5	c #FEE696",
"6	c #FEC67D",
"7	c #FEA23E",
"8	c #FD7403",
"9	c #5A420E",
"0	c #FEC142",
"a	c #935004",
"b	c #FE9E3E",
"c	c #FED776",
"d	c #261202",
"e	c #1A0A02",
"f	c #A9ABAC",
"g	c #AEA28E",
"h	c #22DE72",
"i	c #F6F2E6",
"j	c #36962E",
"k	c #EAE2DA",
"l	c #26BA3A",
"m	c #D2B276",
"n	c #FE9A02",
"o	c #FECE56",
"p	c #F8B255",
"q	c #FEAC0B",
"r	c #FECE6A",
"s	c #FC5602",
"t	c #EE722E",
"u	c #FE922A",
"v	c #2A1A0A",
"w	c #DE6A05",
"                                                                                                                                                                                                                                                                                                                                                                        ",
"                                                                                                                                                                                                                                                                                                                                                                        ",
"                                                                                                                                                                                                                                                                                                                                                                        ",
"                                                                                                                                                                                                                                                                                                                                                                        ",
"            .+++.                         .+++.                         .@@@@.                        .@@@@.                                                                                    .@@@@.                        .@@@@.                         .+++.                         .+++.                                                      .+++.             ",
"           .#++@+.                       .#++@+.                       .#++@@@.                      .#++@@@.                       .#$@$%&                       .#$@$%&                      .@@@++#.                      .@@@++#.                       .+@++#.                       .+@++#.                       .#$@$%&                      .#++@+.            ",
"           ++@@@@@@                      ++@@@@@@                     .++@$$$@+.                    .++@$$$@+.                     +@%@@@$@.                     +@%@@@$@.                    .$@$$$@++.                    .$@$$$@++.                     @@@@@@++                      @@@@@@++                      +@%@@@$@.                     ++@@@@@@           ",
"          .+++&*@#                      .+++&*@#                      @+++&*@#*+                    @+++&*@#*+                    .%=-;@=>&$                    .%=-;@=>&$                    +*#@*&+++@                    +*#@*&+++@                      #@*&+++.                      #@*&+++.                    .%=-;@=>&$                    .+++&*@#            ",
"          ++;*&,')@                     ++;*&,')@                     ++#*&!')@+                    ++#*&!')@+                    ;~{;)';&*;=                   ;~{;)';&*;=                   +@)',&*#++]                   +@)',&*#++]                    @)'!^*;++=                    @)'!^*;++=                   ;~{;)';&*;=                   ++;*&,')@           ",
"          +#+/((/{_:                    +#+/((/{_:                    +.+<(/[_:}                    +.+<(/[_:}                    #!|:_1/(2%^                   #!|:_1/(2%^                   }:_[/(/+.+&                   }:_[/(/+.+&                   :_[>///+#%^                   :_[>///+#%^                   #!|:_1/(2%^                   +#+/((/{_:          ",
"         =;+34(55(677}8                =;+34(55(677}8                =#+90(1/67}8a                 =#+90(1/67}8a                 =a8876([(49;                  =a8876([(49;                 a8}b<(1(03+#;                 a8}b<(1(03+#;                8}776(15c43+;;                8}776(15c43+;;                  =a8876([(49;                  =;+34(55(677}8       ",
"   >>2-#@@@@d@@@dde@@$fggg-      >>2-#@@@@d@@@dde@@$fggg-      >>2-#@@@@d@@@dde@@$fggg-      >>2-#@@@@d@@@dde@@$fggg-      >>2-#@@@@d@@@dde@@$fggg-      >>2-#@@@@d@@@dde@@$fggg-      >>2-#@@@@d@@@dde@@$fggg-      >>2-#@@@@d@@@dde@@$fggg-      >>2-#@@@@d@@@dde@@$fggg-      >>2-#@@@@d@@@dde@@$fggg-      >>2-#@@@@d@@@dde@@$fggg-      >>2-#@@@@d@@@dde@@$fggg-   ",
"  {>->->-2@@@%;;%@@@--2g----    {>->->-2@@@%;;%@@@--2g----    {>->->-2@@@%;;%@@@--2g----    {>->->-2@@@%;;%@@@--2g----    {>->->-2@@@%;;%@@@--2g----    {>->->-2@@@%;;%@@@--2g----    {>->->-2@@@%;;%@@@--2g----    {>->->-2@@@%;;%@@@--2g----    {>->->-2@@@%;;%@@@--2g----    {>->->-2@@@%;;%@@@--2g----    {>->->-2@@@%;;%@@@--2g----    {>->->-2@@@%;;%@@@--2g----  ",
"  hhh{{i{>>-2f->gg22-g---jjj    hhh{{i{>>-2f->gg22-g---jjj    hhh{{i{>>-2f->gg22-g---jjj    hhh{{i{>>-2f->gg22-g---jjj    hhh{{i{>>-2f->gg22-g---jjj    hhh{{i{>>-2f->gg22-g---jjj    hhh{{i{>>-2f->gg22-g---jjj    hhh{{i{>>-2f->gg22-g---jjj    hhh{{i{>>-2f->gg22-g---jjj    hhh{{i{>>-2f->gg22-g---jjj    hhh{{i{>>-2f->gg22-g---jjj    hhh{{i{>>-2f->gg22-g---jjj  ",
"  hhhhhhhiiii>---k---jjjjjjj    hhhhhhhiiii>---k---jjjjjjj    hhhhhhhiiii>---k---jjjjjjj    hhhhhhhiiii>---k---jjjjjjj    hhhhhhhiiii>---k---jjjjjjj    hhhhhhhiiii>---k---jjjjjjj    hhhhhhhiiii>---k---jjjjjjj    hhhhhhhiiii>---k---jjjjjjj    hhhhhhhiiii>---k---jjjjjjj    hhhhhhhiiii>---k---jjjjjjj    hhhhhhhiiii>---k---jjjjjjj    hhhhhhhiiii>---k---jjjjjjj  ",
"  hhhhhhhhhhhlllljjjjjjjjjjj    hhhhhhhhhhhlllljjjjjjjjjjj    hhhhhhhhhhhlllljjjjjjjjjjj    hhhhhhhhhhhlllljjjjjjjjjjj    hhhhhhhhhhhlllljjjjjjjjjjj    hhhhhhhhhhhlllljjjjjjjjjjj    hhhhhhhhhhhlllljjjjjjjjjjj    hhhhhhhhhhhlllljjjjjjjjjjj    hhhhhhhhhhhlllljjjjjjjjjjj    hhhhhhhhhhhlllljjjjjjjjjjj    hhhhhhhhhhhlllljjjjjjjjjjj    hhhhhhhhhhhlllljjjjjjjjjjj  ",
"  >hhhhhhhhhhlllljjjjjjjjjj-    >hhhhhhhhhhlllljjjjjjjjjj-    >hhhhhhhhhhlllljjjjjjjjjj-    >hhhhhhhhhhlllljjjjjjjjjj-    >hhhhhhhhhhlllljjjjjjjjjj-    >hhhhhhhhhhlllljjjjjjjjjj-    >hhhhhhhhhhlllljjjjjjjjjj-    >hhhhhhhhhhlllljjjjjjjjjj-    >hhhhhhhhhhlllljjjjjjjjjj-    >hhhhhhhhhhlllljjjjjjjjjj-    >hhhhhhhhhhlllljjjjjjjjjj-    >hhhhhhhhhhlllljjjjjjjjjj-  ",
"   hhhhhhhhhhlllljjjjjjjjjj      hhhhhhhhhhlllljjjjjjjjjj      hhhhhhhhhhlllljjjjjjjjjj      hhhhhhhhhhlllljjjjjjjjjj      hhhhhhhhhhlllljjjjjjjjjj      hhhhhhhhhhlllljjjjjjjjjj      hhhhhhhhhhlllljjjjjjjjjj      hhhhhhhhhhlllljjjjjjjjjj      hhhhhhhhhhlllljjjjjjjjjj      hhhhhhhhhhlllljjjjjjjjjj      hhhhhhhhhhlllljjjjjjjjjj      hhhhhhhhhhlllljjjjjjjjjj   ",
"  @@hhhhhhhhhlllljjjjjjjjj@@    @@hhhhhhhhhlllljjjjjjjjj@@    @@hhhhhhhhhlllljjjjjjjjj@@    @@hhhhhhhhhlllljjjjjjjjj@@    @@hhhhhhhhhlllljjjjjjjjj@@    @@hhhhhhhhhlllljjjjjjjjj@@    @@hhhhhhhhhlllljjjjjjjjj@@    @@hhhhhhhhhlllljjjjjjjjj@@    @@hhhhhhhhhlllljjjjjjjjj@@    @@hhhhhhhhhlllljjjjjjjjj@@    @@hhhhhhhhhlllljjjjjjjjj@@    @@hhhhhhhhhlllljjjjjjjjj@@  ",
"  @@@hhhhhhhhlllljjjjjjjj@@@    @@@hhhhhhhhlllljjjjjjjj@@@    @@@hhhhhhhhlllljjjjjjjj@@@    @@@hhhhhhhhlllljjjjjjjj@@@    @@@hhhhhhhhlllljjjjjjjj@@@    @@@hhhhhhhhlllljjjjjjjj@@@    @@@hhhhhhhhlllljjjjjjjj@@@    @@@hhhhhhhhlllljjjjjjjj@@@    @@@hhhhhhhhlllljjjjjjjj@@@    @@@hhhhhhhhlllljjjjjjjj@@@    @@@hhhhhhhhlllljjjjjjjj@@@    @@@hhhhhhhhlllljjjjjjjj@@@  ",
"   @@hhhhhhhhlllljjjjjjjj,@&     @@hhhhhhhhlllljjjjjjjj,@&     @@hhhhhhhhlllljjjjjjjj,@&     @@hhhhhhhhlllljjjjjjjj,@&     @@hhhhhhhhlllljjjjjjjj,@&     @@hhhhhhhhlllljjjjjjjj,@&     @@hhhhhhhhlllljjjjjjjj,@&     @@hhhhhhhhlllljjjjjjjj,@&     @@hhhhhhhhlllljjjjjjjj,@&     @@hhhhhhhhlllljjjjjjjj,@&     @@hhhhhhhhlllljjjjjjjj,@&     @@hhhhhhhhlllljjjjjjjj,@&  ",
"    hhhhhhhhhlllljjjjjjjjj&       hhhhhhhhhlllljjjjjjjjj&       hhhhhhhhhlllljjjjjjjjj&       hhhhhhhhhlllljjjjjjjjj&       hhhhhhhhhlllljjjjjjjjj&       hhhhhhhhhlllljjjjjjjjj&       hhhhhhhhhlllljjjjjjjjj&       hhhhhhhhhlllljjjjjjjjj&       hhhhhhhhhlllljjjjjjjjj&       hhhhhhhhhlllljjjjjjjjj&       hhhhhhhhhlllljjjjjjjjj&       hhhhhhhhhlllljjjjjjjjj&   ",
"    00mhhhhhhlllljjjjjjgn4        00mhhhhhhlllljjjjjjgn4        00mhhhhhhlllljjjjjjgn4        00mhhhhhhlllljjjjjjgn4        00mhhhhhhlllljjjjjjgn4        00mhhhhhhlllljjjjjjgn4        00mhhhhhhlllljjjjjjgn4        00mhhhhhhlllljjjjjjgn4        00mhhhhhhlllljjjjjjgn4        00mhhhhhhlllljjjjjjgn4        00mhhhhhhlllljjjjjjgn4        00mhhhhhhlllljjjjjjgn4    ",
"   oc4_400hhhlllljjjj8nn_p(      oc4_400hhhlllljjjj8nn_p(      oc4_400hhhlllljjjj8nn_p(      oc4_400hhhlllljjjj8nn_p(      oc4_400hhhlllljjjj8nn_p(      oc4_400hhhlllljjjj8nn_p(      oc4_400hhhlllljjjj8nn_p(      oc4_400hhhlllljjjj8nn_p(      oc4_400hhhlllljjjj8nn_p(      oc4_400hhhlllljjjj8nn_p(      oc4_400hhhlllljjjj8nn_p(      oc4_400hhhlllljjjj8nn_p(   ",
"   op__n0c6hhlllljjj_qqn84(      op__n0c6hhlllljjj_qqn84(      op__n0c6hhlllljjj_qqn84(      op__n0c6hhlllljjj_qqn84(      op__n0c6hhlllljjj_qqn84(      op__n0c6hhlllljjj_qqn84(      op__n0c6hhlllljjj_qqn84(      op__n0c6hhlllljjj_qqn84(      op__n0c6hhlllljjj_qqn84(      op__n0c6hhlllljjj_qqn84(      op__n0c6hhlllljjj_qqn84(      op__n0c6hhlllljjj_qqn84(   ",
"  5r4s8nq0o0hlllljt8qqqn8uc1    5r4s8nq0o0hlllljt8qqqn8uc1    5r4s8nq0o0hlllljt8qqqn8uc1    5r4s8nq0o0hlllljt8qqqn8uc1    5r4s8nq0o0hlllljt8qqqn8uc1    5r4s8nq0o0hlllljt8qqqn8uc1    5r4s8nq0o0hlllljt8qqqn8uc1    5r4s8nq0o0hlllljt8qqqn8uc1    5r4s8nq0o0hlllljt8qqqn8uc1    5r4s8nq0o0hlllljt8qqqn8uc1    5r4s8nq0o0hlllljt8qqqn8uc1    5r4s8nq0o0hlllljt8qqqn8uc1  ",
"  (0_ss8nq(odllll~snqq44_845    (0_ss8nq(odllll~snqq44_845    (0_ss8nq(odllll~snqq44_845    (0_ss8nq(odllll~snqq44_845    (0_ss8nq(odllll~snqq44_845    (0_ss8nq(odllll~snqq44_845    (0_ss8nq(odllll~snqq44_845    (0_ss8nq(odllll~snqq44_845    (0_ss8nq(odllll~snqq44_845    (0_ss8nq(odllll~snqq44_845    (0_ss8nq(odllll~snqq44_845    (0_ss8nq(odllll~snqq44_845  ",
"  (__uss8n0pv@%#%vs_40o04_q5    (__uss8n0pv@%#%vs_40o04_q5    (__uss8n0pv@%#%vs_40o04_q5    (__uss8n0pv@%#%vs_40o04_q5    (__uss8n0pv@%#%vs_40o04_q5    (__uss8n0pv@%#%vs_40o04_q5    (__uss8n0pv@%#%vs_40o04_q5    (__uss8n0pv@%#%vs_40o04_q5    (__uss8n0pv@%#%vs_40o04_q5    (__uss8n0pv@%#%vs_40o04_q5    (__uss8n0pv@%#%vs_40o04_q5    (__uss8n0pv@%#%vs_40o04_q5  ",
"   u_uss8n0pv@e#%vs_40o04_q      u_uss8n0pv@e#%vs_40o04_q      u__ss8n0pv@e#%vs_40o04_q      u__ss8n0pv@e#%vs_40o04_q      u_uss8n0pv@e#%ds_40o04_q      u_uss8n0pv@e#%ds_40o04_q      u_uss8n0pd$%v%vs_40o04_q      u_uss8n0pd$%v%vs_40o04_q      __uss8n0pd$%#%ds_40o04_q      __uss8n0pd$%#%ds_40o04_q      u_uss8n0pv@e#%ds_40o04_q      u_uss8n0pv@e#%vs_40o04_q   ",
"       pw8_@%@@@@d@8n4c              pw8_@%@@@@d@8n4c              pw8_@%@@@@d@8n4c              pw8_@%@@@@d@8n4c              p88_@%@@@@v@8n4c              p88_@%@@@@v@8n4c              pw8_@%@@@@d@8n4c              pw8_@%@@@@d@8n4c              4t8_@%@@@@v@8n4c              4t8_@%@@@@v@8n4c              p88_@%@@@@v@8n4c              pw8_@%@@@@d@8n4c       "};
